<svg width="60" height="60" viewBox="0 0 60 60" fill="none" xmlns="http://www.w3.org/2000/svg">
<path d="M60 46.2936C60 45.033 59.3188 43.929 58.3056 43.3287C60.1167 41.0954 58.5302 37.7192 55.6301 37.7192H50.0237V36.0329C50.0237 34.1339 48.4786 32.5889 46.5796 32.5889H42.8224C39.5209 32.5889 36.3313 33.7795 33.8414 35.9414C33.1377 36.5523 32.2151 36.8887 31.2435 36.8887L22.0062 36.8888C22.0635 36.7749 22.0964 36.6499 22.1018 36.5231C22.2561 36.3881 22.3902 36.2286 22.4957 36.0458C22.7992 35.4343 23.2452 35.0252 23.2107 34.2201C23.5172 34.0599 23.7836 33.8149 23.9688 33.494C24.2648 32.8928 24.7167 32.4809 24.6826 31.6692C24.9895 31.509 25.2565 31.2637 25.442 30.9423C25.8118 30.2586 26.0263 30.0485 26.1225 29.5577C26.4458 29.3526 26.445 29.1454 27.3802 27.5854C27.8824 26.7155 27.618 25.606 26.7689 25.0585L27.3655 24.0252L29.2207 25.0963C29.9752 25.5318 30.9382 25.2739 31.3738 24.5193C31.5934 24.1775 31.6092 24.022 31.6991 24.0738L37.6782 27.5259C38.0987 27.7686 38.6362 27.6245 38.8788 27.2042C39.1215 26.7839 38.9775 26.2463 38.5572 26.0036L32.5781 22.5516C31.7088 22.0494 30.5984 22.3468 30.0962 23.2166L29.9423 23.4832L27.4834 22.0636C25.9671 21.1882 23.7497 19.908 22.8247 19.374L24.9961 15.6132C29.0796 17.9709 40.7522 24.71 44.6063 26.9352L43.5932 28.6897C43.5402 28.7812 43.4225 28.8127 43.3313 28.76L42.1092 28.0544C41.6886 27.8116 41.1512 27.9557 40.9086 28.3761C40.6659 28.7964 40.81 29.334 41.2303 29.5767L42.4523 30.2823C43.3863 30.8217 44.5796 30.4964 45.1155 29.5687L46.344 27.4408C46.6846 26.8507 46.5184 26.1054 45.9823 25.7101C45.9894 25.6977 51.6765 15.8383 52.2175 14.9104C52.8462 15.1851 53.5642 14.9348 53.8968 14.3589L54.8888 12.6409C55.2544 12.0072 55.0364 11.1941 54.4029 10.8282L41.4788 3.36652C41.058 3.12359 40.5206 3.26785 40.2782 3.6882C40.0355 4.10855 40.1795 4.64609 40.5998 4.88879L53.1511 12.1353L52.59 13.1071C49.4673 11.3043 36.7389 3.95551 34.8919 2.88922L35.453 1.91738L37.0478 2.83812C37.4681 3.08082 38.0057 2.9368 38.2484 2.51645C38.4911 2.09609 38.347 1.55855 37.9267 1.31586L35.9588 0.179727C35.3223 -0.187539 34.5118 0.0312501 34.146 0.665469L33.1542 2.3832C32.7873 3.01812 33.0045 3.82941 33.6398 4.19621L34.6365 4.7716L31.0459 10.9907L30.4452 10.644C30.0252 10.4012 29.4874 10.5453 29.2446 10.9657L27.0489 14.7687L25.502 13.8757C24.8682 13.5099 24.0551 13.7277 23.6892 14.3615L21.2118 18.6527C20.7761 19.407 21.0341 20.3701 21.7886 20.8058L23.1197 21.5743L22.5231 22.6077C21.6261 22.1471 20.5323 22.4703 20.0291 23.3418C19.1318 24.959 18.9648 25.0361 18.9498 25.4171C18.5729 25.7458 18.4982 26.0366 18.0911 26.6986C17.9093 27.0133 17.8254 27.3656 17.8407 27.7201C17.5345 27.8803 17.2679 28.1245 17.0827 28.4452C16.7856 29.0485 16.335 29.4577 16.3689 30.2695C16.0542 30.4336 15.7911 30.6822 15.6094 30.997C15.2325 31.6924 15.0243 31.8949 14.9282 32.382C14.6073 32.5861 14.6271 32.7591 13.6712 34.3538C13.1697 35.2228 13.4414 36.3271 14.2691 36.8717L14.2589 36.8893H0.878906C0.393516 36.8893 0 37.2828 0 37.7682V54.819C0 55.3044 0.393516 55.6979 0.878906 55.6979L10.9989 55.698C11.4843 55.698 11.8778 55.3045 11.8778 54.8191C11.8778 54.3337 11.4843 53.9402 10.9989 53.9402L1.75781 53.9401V38.6471L13.7299 38.6469C13.7616 38.7052 13.7977 38.7617 13.8431 38.8128C14.2113 39.2274 13.838 39.8732 13.2959 39.7609C12.925 39.6848 12.547 39.8546 12.3579 40.1824C12.113 40.7691 10.1745 43.0187 10.7334 46.5641C10.8101 47.05 11.0221 47.4978 11.3781 47.846L15.7975 52.1668C18.4302 54.8053 22.9625 53.0722 23.171 49.3625C23.2343 48.2367 22.852 47.1352 22.1283 46.2936C24.1535 43.9388 23.1062 40.3116 20.1896 39.3612C20.5112 39.2109 20.7928 38.9686 20.992 38.6468L31.2436 38.6466C32.6386 38.6466 33.9705 38.1574 34.9939 37.2689C37.1643 35.3845 39.9444 34.3468 42.8225 34.3468H46.5797C47.5096 34.3468 48.266 35.1032 48.266 36.033V44.7052C48.266 45.6351 47.5096 46.3916 46.5797 46.3916C45.6498 46.3916 44.8934 45.6351 44.8934 44.7052V38.995C44.8934 38.5096 44.5 38.1161 44.0145 38.1161C43.5289 38.1161 43.1355 38.5096 43.1355 38.995C43.1355 40.4132 41.9817 41.5669 40.5636 41.5669C39.1455 41.5669 37.9918 40.4131 37.9918 38.995C37.9918 38.5096 37.5984 38.1161 37.1129 38.1161C36.6274 38.1161 36.234 38.5096 36.234 38.995C36.234 41.3825 38.1763 43.3248 40.5636 43.3248C41.526 43.3248 42.416 43.0092 43.1355 42.4761V44.7051C43.1355 47.9259 47.194 49.3852 49.2437 46.8853C49.3522 47.5091 49.6289 48.0755 50.0255 48.5364C48.4704 49.5491 48.0117 51.5722 48.9135 53.1372C46.4837 53.4373 45.1411 56.1212 46.3365 58.2405H42.8225C39.9444 58.2405 37.1643 57.2028 34.9939 55.3183C33.9705 54.4298 32.6386 53.9405 31.2436 53.9405L10.9989 53.9402C6.89731 53.9402 11.8778 54.3337 11.8778 54.8191C11.8778 55.3045 10.5135 55.698 10.9989 55.698L31.2436 55.6984C32.2152 55.6984 33.1378 56.0348 33.8415 56.6456C36.3314 58.8076 39.521 59.9982 42.8225 59.9982H53.258C55.157 59.9982 56.7021 58.4532 56.7021 56.5541C56.7021 55.9305 56.5348 55.3457 56.2438 54.8407C57.9432 54.6308 59.2635 53.1789 59.2635 51.4237C59.2635 50.5675 58.9487 49.7839 58.4298 49.1809C59.3739 48.5662 60 47.5019 60 46.2936ZM34.6493 16.0579L38.1914 9.9227C39.7233 10.8071 41.4769 11.8196 43.0089 12.704L42.4141 13.7342L40.0055 12.3436C39.5849 12.1006 39.0475 12.2449 38.8049 12.6652C38.5622 13.0856 38.7062 13.6231 39.1266 13.8658L41.5352 15.2565C41.3272 15.6167 41.1484 15.9264 40.9404 16.2867L38.5317 14.896C38.111 14.6531 37.5737 14.7973 37.3311 15.2177C37.0884 15.638 37.2325 16.1756 37.6528 16.4183L40.0615 17.8089L39.4666 18.8391C37.9348 17.9548 36.1812 16.9423 34.6493 16.0579ZM45.4663 17.5261L47.875 18.9167L47.2801 19.9469L44.8713 18.5563C44.4507 18.3134 43.9133 18.4576 43.6707 18.8779C43.4281 19.2983 43.5721 19.8358 43.9924 20.0785L46.4012 21.4692L45.8064 22.4994C44.2745 21.615 42.5208 20.6025 40.9889 19.7179C42.1493 17.708 43.5253 15.3248 44.531 13.5827C45.2139 13.9769 48.6636 15.9686 49.3485 16.364L48.7536 17.3942L46.345 16.0036C45.9244 15.7607 45.387 15.9049 45.1444 16.3252C44.9018 16.7459 45.0459 17.2834 45.4663 17.5261ZM39.6472 22.0422L40.1101 21.2404C41.6418 22.1247 43.3959 23.1375 44.9276 24.0218L44.4647 24.8234C43.9053 24.5007 40.0294 22.2629 39.6472 22.0422ZM50.6905 14.0402L50.2276 14.8419L45.4102 12.0605C45.417 12.0488 45.8913 11.227 45.873 11.2587C47.1456 11.9936 48.4372 12.7393 50.6905 14.0402ZM44.3507 10.3798L43.8878 11.1816C42.3622 10.3009 40.596 9.28109 39.0704 8.40031L39.5333 7.59863C40.2205 7.99531 42.5841 9.35996 44.3507 10.3798ZM33.7704 17.5802L38.5877 20.3615L38.1248 21.1633L33.3075 18.382L33.7704 17.5802ZM36.1589 5.65039L38.0111 6.71973C37.7473 7.18121 38.5021 5.86918 31.7852 17.5031L31.2949 17.2201L33.4906 13.4169C33.7332 12.9965 33.5892 12.459 33.1689 12.2163L32.5683 11.8695L36.1589 5.65039ZM30.3277 12.6056L31.5288 13.2991L29.7725 16.3412L28.5713 15.6477L30.3277 12.6056ZM17.3088 31.8282L21.3908 34.185C21.453 34.2209 21.4741 34.2999 21.4383 34.3619L20.9734 35.1671C20.9377 35.2291 20.8587 35.2503 20.7966 35.2145L16.7145 32.8576C16.6518 32.8215 16.6315 32.7421 16.6671 32.6807L17.1319 31.8757C17.1667 31.8154 17.2447 31.7912 17.3088 31.8282ZM18.1403 30.129L18.605 29.3239C18.6405 29.2624 18.7194 29.2403 18.782 29.2764L22.864 31.6332C22.9257 31.6689 22.9471 31.7483 22.9113 31.8102L22.4466 32.6151C22.4108 32.6771 22.3316 32.6982 22.2696 32.6626L18.1876 30.3058C18.1259 30.2702 18.1046 30.1907 18.1403 30.129ZM19.6136 27.5772L20.0784 26.7721C20.1139 26.7106 20.1926 26.6888 20.255 26.7247L24.3374 29.0817C24.3993 29.1174 24.4205 29.1968 24.3847 29.2586L23.92 30.0637C23.8843 30.1256 23.8049 30.1468 23.743 30.1111L19.661 27.7543C19.5991 27.7184 19.5778 27.6391 19.6136 27.5772ZM15.2414 35.4093C15.1795 35.3736 15.1582 35.2943 15.1939 35.2324L15.7235 34.3152C21.7615 37.8011 17.7199 35.4678 20.0299 36.8014L19.5004 37.7186C19.4646 37.7806 19.3853 37.8018 19.3234 37.7661C14.2529 34.8386 20.4454 38.4139 15.2414 35.4093ZM25.2491 24.1759L25.2222 24.1603L24.0479 23.4823L24.6422 22.453L25.8435 23.1465L25.2491 24.1759ZM21.5516 24.2205C21.5873 24.1586 21.6662 24.137 21.7286 24.173C23.1571 24.9978 24.3822 25.705 25.8105 26.5298C25.8725 26.5657 25.8939 26.6445 25.858 26.7068L25.3284 27.624C20.798 25.0084 21.9946 25.6992 21.022 25.1377L21.5516 24.2205ZM13.6139 41.5223C15.2297 41.3836 16.2141 39.6737 15.5277 38.2075L15.7889 37.7552L17.0181 38.4649L14.4616 42.8928C13.9566 43.7675 13.2449 44.5055 12.4001 45.0443C12.4867 43.0718 13.432 41.9141 13.6139 41.5223ZM20.4703 45.4637C19.941 45.8933 19.9439 46.6964 20.4703 47.1235C21.1182 47.6493 21.463 48.4296 21.416 49.2639C21.2921 51.4702 18.5966 52.4881 17.0392 50.9226C17.0364 50.9198 17.0334 50.9169 17.0305 50.9141L12.8439 46.8208C14.1454 46.1177 15.2398 45.0607 15.9839 43.7718L17.3535 41.3997C17.8532 41.0364 18.4628 40.8649 19.089 40.9191C21.3459 41.1157 22.2729 44.0009 20.4703 45.4637ZM52.6358 44.6074H56.5559C57.4857 44.6074 58.2422 45.3638 58.2422 46.2937C58.2422 47.2235 57.4857 47.9799 56.5559 47.9799H52.6358C51.7059 47.9799 50.9495 47.2235 50.9495 46.2936C50.9496 45.3638 51.7061 44.6074 52.6358 44.6074ZM55.6301 39.477C56.56 39.477 57.3164 40.2335 57.3164 41.1632C57.3164 42.0931 56.56 42.8496 55.6301 42.8496H51.7099C50.7802 42.8496 50.0237 42.0931 50.0237 41.1632C50.0237 40.2335 50.7802 39.477 51.7099 39.477H55.6301ZM53.258 58.2405H49.3379C48.4081 58.2405 47.6516 57.4841 47.6516 56.5542C47.6516 55.6243 48.4081 54.8678 49.3379 54.8678H53.258C54.1879 54.8678 54.9443 55.6243 54.9443 56.5542C54.9443 57.4841 54.1877 58.2405 53.258 58.2405ZM55.8193 53.1102H51.8992C50.9693 53.1102 50.2129 52.3537 50.2129 51.4239C50.2129 50.4941 50.9693 49.7376 51.8992 49.7376H55.8193C56.7491 49.7376 57.5055 50.4941 57.5055 51.4239C57.5055 52.3537 56.7491 53.1102 55.8193 53.1102Z" fill="white" fill-opacity="0.7"/>
</svg>
