<svg width="30" height="30" viewBox="0 0 30 30" fill="none" xmlns="http://www.w3.org/2000/svg">
<path d="M21.8792 0H8.12071C3.64288 0 0 3.64288 0 8.12071V21.8795C0 26.3571 3.64288 29.9999 8.12071 29.9999H21.8795C26.3571 29.9999 29.9999 26.3571 29.9999 21.8795V8.12071C29.9999 3.64288 26.3571 0 21.8792 0ZM28.2412 21.8795C28.2412 25.3873 25.3873 28.2412 21.8792 28.2412H8.12071C4.61265 28.2412 1.75872 25.3873 1.75872 21.8795V8.12071C1.75872 4.61265 4.61265 1.75872 8.12071 1.75872H21.8795C25.3873 1.75872 28.2412 4.61265 28.2412 8.12071V21.8795Z" fill="white" fill-opacity="0.7"/>
<path d="M14.9997 7C10.4766 7 6.79688 10.6797 6.79688 15.2029C6.79688 19.726 14.9997 23.4057 14.9997 23.4057C14.9997 23.4057 23.2026 19.726 23.2026 15.2029C23.2026 10.6797 19.5229 7 14.9997 7ZM14.9997 21.647C11.4466 21.647 8.5556 18.7562 8.5556 15.2029C8.5556 11.6497 11.4466 8.75872 14.9997 8.75872C18.5531 8.75872 21.4439 11.6497 21.4439 15.2029C21.4439 18.7562 18.5531 21.647 14.9997 21.647Z" fill="white" fill-opacity="0.7"/>
<path d="M23.399 13C22.0623 13 20.9751 14.0874 20.9751 15.4239C20.9751 16.7605 22.0623 17.8479 23.399 17.8479C24.7356 17.8479 25.823 16.7605 25.823 15.4239C25.823 14.0872 24.7356 13 23.399 13ZM23.399 16.089C23.0323 16.089 22.7338 15.7905 22.7338 15.4239C22.7338 15.057 23.0323 14.7587 23.399 14.7587C23.7658 14.7587 24.0643 15.057 24.0643 15.4239C24.0643 15.7905 23.7658 16.089 23.399 16.089Z" fill="white" fill-opacity="0.7"/>
</svg>
