<svg width="187" height="40" viewBox="0 0 187 40" fill="none" xmlns="http://www.w3.org/2000/svg">
<path d="M59.9457 31.257H57.3057V30.3H63.6747V31.257H61.0347V38H59.9457V31.257ZM66.5303 32.115C67.3369 32.115 67.9529 32.313 68.3783 32.709C68.8109 33.105 69.0273 33.6953 69.0273 34.48V38H68.0263V37.23C67.8503 37.5013 67.5973 37.7103 67.2673 37.857C66.9446 37.9963 66.5596 38.066 66.1123 38.066C65.4596 38.066 64.9353 37.9083 64.5393 37.593C64.1506 37.2777 63.9563 36.8633 63.9563 36.35C63.9563 35.8367 64.1433 35.426 64.5173 35.118C64.8913 34.8027 65.4853 34.645 66.2993 34.645H67.9713V34.436C67.9713 33.9813 67.8393 33.633 67.5753 33.391C67.3113 33.149 66.9226 33.028 66.4093 33.028C66.0646 33.028 65.7273 33.0867 65.3973 33.204C65.0673 33.314 64.7886 33.4643 64.5613 33.655L64.1213 32.863C64.4219 32.621 64.7813 32.4377 65.1993 32.313C65.6173 32.181 66.0609 32.115 66.5303 32.115ZM66.2883 37.252C66.6916 37.252 67.0399 37.164 67.3333 36.988C67.6266 36.8047 67.8393 36.548 67.9713 36.218V35.404H66.3433C65.4486 35.404 65.0013 35.7047 65.0013 36.306C65.0013 36.5993 65.1149 36.8303 65.3423 36.999C65.5696 37.1677 65.8849 37.252 66.2883 37.252ZM74.2595 37.659C74.1055 37.791 73.9148 37.8937 73.6875 37.967C73.4601 38.033 73.2255 38.066 72.9835 38.066C72.3968 38.066 71.9421 37.9083 71.6195 37.593C71.2968 37.2777 71.1355 36.8267 71.1355 36.24V33.039H70.1455V32.17H71.1355V30.894H72.1915V32.17H73.8635V33.039H72.1915V36.196C72.1915 36.5113 72.2685 36.7533 72.4225 36.922C72.5838 37.0907 72.8111 37.175 73.1045 37.175C73.4271 37.175 73.7021 37.0833 73.9295 36.9L74.2595 37.659ZM78.6745 37.659C78.5205 37.791 78.3298 37.8937 78.1025 37.967C77.8752 38.033 77.6405 38.066 77.3985 38.066C76.8118 38.066 76.3572 37.9083 76.0345 37.593C75.7118 37.2777 75.5505 36.8267 75.5505 36.24V33.039H74.5605V32.17H75.5505V30.894H76.6065V32.17H78.2785V33.039H76.6065V36.196C76.6065 36.5113 76.6835 36.7533 76.8375 36.922C76.9988 37.0907 77.2262 37.175 77.5195 37.175C77.8422 37.175 78.1172 37.0833 78.3445 36.9L78.6745 37.659ZM82.2548 38.066C81.6755 38.066 81.1548 37.9377 80.6928 37.681C80.2308 37.4243 79.8678 37.0723 79.6038 36.625C79.3472 36.1703 79.2188 35.657 79.2188 35.085C79.2188 34.513 79.3472 34.0033 79.6038 33.556C79.8678 33.1013 80.2308 32.7493 80.6928 32.5C81.1548 32.2433 81.6755 32.115 82.2548 32.115C82.8342 32.115 83.3512 32.2433 83.8058 32.5C84.2678 32.7493 84.6272 33.1013 84.8838 33.556C85.1478 34.0033 85.2798 34.513 85.2798 35.085C85.2798 35.657 85.1478 36.1703 84.8838 36.625C84.6272 37.0723 84.2678 37.4243 83.8058 37.681C83.3512 37.9377 82.8342 38.066 82.2548 38.066ZM82.2548 37.142C82.6288 37.142 82.9625 37.0577 83.2558 36.889C83.5565 36.713 83.7912 36.471 83.9598 36.163C84.1285 35.8477 84.2128 35.4883 84.2128 35.085C84.2128 34.6817 84.1285 34.326 83.9598 34.018C83.7912 33.7027 83.5565 33.4607 83.2558 33.292C82.9625 33.1233 82.6288 33.039 82.2548 33.039C81.8808 33.039 81.5435 33.1233 81.2428 33.292C80.9495 33.4607 80.7148 33.7027 80.5388 34.018C80.3702 34.326 80.2858 34.6817 80.2858 35.085C80.2858 35.4883 80.3702 35.8477 80.5388 36.163C80.7148 36.471 80.9495 36.713 81.2428 36.889C81.5435 37.0577 81.8808 37.142 82.2548 37.142ZM89.2373 38.066C88.6579 38.066 88.1373 37.9377 87.6753 37.681C87.2133 37.4243 86.8503 37.0723 86.5863 36.625C86.3296 36.1703 86.2013 35.657 86.2013 35.085C86.2013 34.513 86.3296 34.0033 86.5863 33.556C86.8503 33.1013 87.2133 32.7493 87.6753 32.5C88.1373 32.2433 88.6579 32.115 89.2373 32.115C89.8166 32.115 90.3336 32.2433 90.7883 32.5C91.2503 32.7493 91.6096 33.1013 91.8663 33.556C92.1303 34.0033 92.2623 34.513 92.2623 35.085C92.2623 35.657 92.1303 36.1703 91.8663 36.625C91.6096 37.0723 91.2503 37.4243 90.7883 37.681C90.3336 37.9377 89.8166 38.066 89.2373 38.066ZM89.2373 37.142C89.6113 37.142 89.9449 37.0577 90.2383 36.889C90.5389 36.713 90.7736 36.471 90.9423 36.163C91.1109 35.8477 91.1953 35.4883 91.1953 35.085C91.1953 34.6817 91.1109 34.326 90.9423 34.018C90.7736 33.7027 90.5389 33.4607 90.2383 33.292C89.9449 33.1233 89.6113 33.039 89.2373 33.039C88.8633 33.039 88.5259 33.1233 88.2253 33.292C87.9319 33.4607 87.6973 33.7027 87.5213 34.018C87.3526 34.326 87.2683 34.6817 87.2683 35.085C87.2683 35.4883 87.3526 35.8477 87.5213 36.163C87.6973 36.471 87.9319 36.713 88.2253 36.889C88.5259 37.0577 88.8633 37.142 89.2373 37.142ZM98.3488 38.066C97.8721 38.066 97.4138 38.0037 96.9738 37.879C96.5338 37.747 96.1891 37.582 95.9398 37.384L96.3798 36.548C96.6364 36.7313 96.9481 36.878 97.3148 36.988C97.6814 37.098 98.0518 37.153 98.4258 37.153C99.3498 37.153 99.8118 36.889 99.8118 36.361C99.8118 36.185 99.7494 36.0457 99.6248 35.943C99.5001 35.8403 99.3424 35.767 99.1518 35.723C98.9684 35.6717 98.7044 35.6167 98.3598 35.558C97.8904 35.4847 97.5054 35.4003 97.2048 35.305C96.9114 35.2097 96.6584 35.0483 96.4458 34.821C96.2331 34.5937 96.1268 34.2747 96.1268 33.864C96.1268 33.336 96.3468 32.9143 96.7868 32.599C97.2268 32.2763 97.8171 32.115 98.5578 32.115C98.9464 32.115 99.3351 32.1627 99.7238 32.258C100.112 32.3533 100.431 32.4817 100.681 32.643L100.23 33.479C99.7531 33.171 99.1921 33.017 98.5468 33.017C98.0994 33.017 97.7584 33.0903 97.5238 33.237C97.2891 33.3837 97.1718 33.578 97.1718 33.82C97.1718 34.0107 97.2378 34.161 97.3698 34.271C97.5018 34.381 97.6631 34.4617 97.8538 34.513C98.0518 34.5643 98.3268 34.623 98.6788 34.689C99.1481 34.7697 99.5258 34.8577 99.8118 34.953C100.105 35.041 100.354 35.195 100.56 35.415C100.765 35.635 100.868 35.943 100.868 36.339C100.868 36.867 100.64 37.2887 100.186 37.604C99.7384 37.912 99.1261 38.066 98.3488 38.066ZM105.466 37.659C105.312 37.791 105.121 37.8937 104.894 37.967C104.666 38.033 104.432 38.066 104.19 38.066C103.603 38.066 103.148 37.9083 102.826 37.593C102.503 37.2777 102.342 36.8267 102.342 36.24V33.039H101.352V32.17H102.342V30.894H103.398V32.17H105.07V33.039H103.398V36.196C103.398 36.5113 103.475 36.7533 103.629 36.922C103.79 37.0907 104.017 37.175 104.311 37.175C104.633 37.175 104.908 37.0833 105.136 36.9L105.466 37.659ZM112.176 32.17V38H111.175V37.12C110.963 37.4207 110.68 37.6553 110.328 37.824C109.984 37.9853 109.606 38.066 109.195 38.066C108.418 38.066 107.806 37.8533 107.358 37.428C106.911 36.9953 106.687 36.361 106.687 35.525V32.17H107.743V35.404C107.743 35.9687 107.879 36.3977 108.15 36.691C108.422 36.977 108.81 37.12 109.316 37.12C109.874 37.12 110.314 36.9513 110.636 36.614C110.959 36.2767 111.12 35.8 111.12 35.184V32.17H112.176ZM119.687 29.838V38H118.675V37.076C118.44 37.3987 118.143 37.6443 117.784 37.813C117.424 37.9817 117.028 38.066 116.596 38.066C116.031 38.066 115.525 37.9413 115.078 37.692C114.63 37.4427 114.278 37.0943 114.022 36.647C113.772 36.1923 113.648 35.6717 113.648 35.085C113.648 34.4983 113.772 33.9813 114.022 33.534C114.278 33.0867 114.63 32.7383 115.078 32.489C115.525 32.2397 116.031 32.115 116.596 32.115C117.014 32.115 117.399 32.1957 117.751 32.357C118.103 32.511 118.396 32.742 118.631 33.05V29.838H119.687ZM116.684 37.142C117.05 37.142 117.384 37.0577 117.685 36.889C117.985 36.713 118.22 36.471 118.389 36.163C118.557 35.8477 118.642 35.4883 118.642 35.085C118.642 34.6817 118.557 34.326 118.389 34.018C118.22 33.7027 117.985 33.4607 117.685 33.292C117.384 33.1233 117.05 33.039 116.684 33.039C116.31 33.039 115.972 33.1233 115.672 33.292C115.378 33.4607 115.144 33.7027 114.968 34.018C114.799 34.326 114.715 34.6817 114.715 35.085C114.715 35.4883 114.799 35.8477 114.968 36.163C115.144 36.471 115.378 36.713 115.672 36.889C115.972 37.0577 116.31 37.142 116.684 37.142ZM121.685 32.17H122.741V38H121.685V32.17ZM122.213 31.048C122.007 31.048 121.835 30.982 121.696 30.85C121.564 30.718 121.498 30.5567 121.498 30.366C121.498 30.1753 121.564 30.014 121.696 29.882C121.835 29.7427 122.007 29.673 122.213 29.673C122.418 29.673 122.587 29.739 122.719 29.871C122.858 29.9957 122.928 30.1533 122.928 30.344C122.928 30.542 122.858 30.7107 122.719 30.85C122.587 30.982 122.418 31.048 122.213 31.048ZM127.254 38.066C126.675 38.066 126.154 37.9377 125.692 37.681C125.23 37.4243 124.867 37.0723 124.603 36.625C124.346 36.1703 124.218 35.657 124.218 35.085C124.218 34.513 124.346 34.0033 124.603 33.556C124.867 33.1013 125.23 32.7493 125.692 32.5C126.154 32.2433 126.675 32.115 127.254 32.115C127.833 32.115 128.35 32.2433 128.805 32.5C129.267 32.7493 129.626 33.1013 129.883 33.556C130.147 34.0033 130.279 34.513 130.279 35.085C130.279 35.657 130.147 36.1703 129.883 36.625C129.626 37.0723 129.267 37.4243 128.805 37.681C128.35 37.9377 127.833 38.066 127.254 38.066ZM127.254 37.142C127.628 37.142 127.962 37.0577 128.255 36.889C128.556 36.713 128.79 36.471 128.959 36.163C129.128 35.8477 129.212 35.4883 129.212 35.085C129.212 34.6817 129.128 34.326 128.959 34.018C128.79 33.7027 128.556 33.4607 128.255 33.292C127.962 33.1233 127.628 33.039 127.254 33.039C126.88 33.039 126.543 33.1233 126.242 33.292C125.949 33.4607 125.714 33.7027 125.538 34.018C125.369 34.326 125.285 34.6817 125.285 35.085C125.285 35.4883 125.369 35.8477 125.538 36.163C125.714 36.471 125.949 36.713 126.242 36.889C126.543 37.0577 126.88 37.142 127.254 37.142Z" fill="white" fill-opacity="0.7"/>
<path d="M29.7055 3.9375V5.20312H33.8539V19.7461H29.7055V21H39.5844V19.7461H35.307V5.20312H39.5844V3.9375H29.7055ZM48.0195 3.9375H46.2148V21H47.5859V13.4414L47.4922 6.10547L50.9844 15.8672H51.8984L55.6836 5.92969L55.5898 13.4414V21H56.9609V3.9375H55.1211L51.4531 13.5586L48.0195 3.9375ZM65.0094 13.9688H68.982C69.7242 13.9609 70.4195 13.8438 71.068 13.6172C71.7242 13.3906 72.2984 13.0625 72.7906 12.6328C73.275 12.2109 73.6578 11.6953 73.9391 11.0859C74.2281 10.4688 74.3727 9.76953 74.3727 8.98828C74.3727 8.19922 74.232 7.49609 73.9508 6.87891C73.6695 6.26172 73.2828 5.73437 72.7906 5.29688C72.3062 4.86719 71.7359 4.53906 71.0797 4.3125C70.4234 4.07812 69.7242 3.95312 68.982 3.9375H63.6148V21H65.0094V13.9688ZM65.0094 12.7617V5.14453H68.982C69.5445 5.15234 70.068 5.25 70.5523 5.4375C71.0445 5.61719 71.4703 5.875 71.8297 6.21094C72.1812 6.54688 72.4586 6.95312 72.6617 7.42969C72.8648 7.89844 72.9664 8.42578 72.9664 9.01172C72.9664 9.58984 72.8609 10.1094 72.65 10.5703C72.4469 11.0312 72.1656 11.4219 71.8062 11.7422C71.4469 12.0625 71.025 12.3125 70.5406 12.4922C70.0562 12.6641 69.5367 12.7539 68.982 12.7617H65.0094ZM85.8781 13.8633L89.6164 21H91.0812L91.093 20.8477L87.1906 13.5352C87.6828 13.332 88.132 13.0859 88.5383 12.7969C88.9523 12.5078 89.3078 12.1758 89.6047 11.8008C89.9016 11.418 90.132 10.9922 90.2961 10.5234C90.468 10.0547 90.5539 9.53125 90.5539 8.95312C90.5539 8.15625 90.4094 7.44922 90.1203 6.83203C89.8391 6.21484 89.4523 5.69531 88.9602 5.27344C88.4602 4.84375 87.8781 4.51953 87.2141 4.30078C86.55 4.07422 85.843 3.95312 85.093 3.9375H80.2766V21H81.6594V13.8633H85.8781ZM81.6594 12.6562V5.14453H85.093C85.6633 5.15234 86.1945 5.24219 86.6867 5.41406C87.1867 5.58594 87.6164 5.83203 87.9758 6.15234C88.343 6.48047 88.6281 6.87891 88.8312 7.34766C89.0422 7.81641 89.1477 8.34766 89.1477 8.94141C89.1477 9.48828 89.05 9.98828 88.8547 10.4414C88.6672 10.8867 88.4055 11.2695 88.0695 11.5898C87.7258 11.918 87.3234 12.1758 86.8625 12.3633C86.4094 12.5508 85.9172 12.6484 85.3859 12.6562H81.6594ZM96.9617 3.9375V5.20312H101.11V19.7461H96.9617V21H106.841V19.7461H102.563V5.20312H106.841V3.9375H96.9617ZM124.041 21V3.9375H122.635V18.2695L114.807 3.9375H113.412V21H114.807V6.63281L122.647 21H124.041ZM141.688 5.17969V3.9375H129.43V5.17969H134.879L134.867 21H136.238V5.17969H141.688ZM156.744 16.793C156.744 17.3555 156.627 17.8398 156.392 18.2461C156.158 18.6445 155.849 18.9727 155.466 19.2305C155.091 19.4883 154.662 19.6797 154.177 19.8047C153.693 19.9297 153.201 19.9922 152.701 19.9922C152.099 19.9922 151.537 19.9141 151.013 19.7578C150.498 19.5938 150.041 19.3516 149.642 19.0312C149.244 18.7188 148.916 18.332 148.658 17.8711C148.4 17.4023 148.236 16.8594 148.166 16.2422H146.748C146.779 16.9766 146.939 17.6367 147.228 18.2227C147.517 18.8008 147.912 19.3008 148.412 19.7227C148.966 20.2227 149.619 20.6016 150.369 20.8594C151.127 21.1094 151.904 21.2344 152.701 21.2344C153.373 21.2344 154.037 21.1406 154.693 20.9531C155.349 20.7656 155.939 20.4883 156.463 20.1211C156.978 19.7539 157.396 19.293 157.716 18.7383C158.037 18.1758 158.197 17.5195 158.197 16.7695C158.197 16.0195 158.037 15.3672 157.716 14.8125C157.404 14.25 156.998 13.7773 156.498 13.3945C155.974 12.9883 155.4 12.6523 154.775 12.3867C154.15 12.1211 153.525 11.8906 152.9 11.6953C152.447 11.5625 151.97 11.4062 151.47 11.2266C150.978 11.0391 150.525 10.8047 150.111 10.5234C149.697 10.25 149.357 9.91797 149.091 9.52734C148.834 9.13672 148.701 8.65625 148.693 8.08594C148.693 7.55469 148.806 7.09375 149.033 6.70312C149.267 6.3125 149.572 5.98438 149.947 5.71875C150.322 5.46094 150.74 5.26953 151.201 5.14453C151.67 5.01172 152.142 4.94531 152.619 4.94531C153.189 4.94531 153.709 5.03516 154.177 5.21484C154.654 5.39453 155.064 5.64844 155.408 5.97656C155.759 6.30469 156.041 6.69922 156.252 7.16016C156.463 7.61328 156.599 8.11719 156.662 8.67188H158.091C158.068 7.92188 157.904 7.24219 157.599 6.63281C157.302 6.01562 156.908 5.49219 156.416 5.0625C155.916 4.63281 155.338 4.30078 154.681 4.06641C154.033 3.82422 153.345 3.70312 152.619 3.70312C151.97 3.70312 151.326 3.80078 150.685 3.99609C150.045 4.18359 149.47 4.46094 148.963 4.82812C148.455 5.20312 148.041 5.66797 147.72 6.22266C147.408 6.76953 147.252 7.39844 147.252 8.10938C147.259 8.88281 147.431 9.53516 147.767 10.0664C148.103 10.5977 148.537 11.0547 149.068 11.4375C149.552 11.7891 150.095 12.0898 150.697 12.3398C151.298 12.5898 151.884 12.8047 152.455 12.9844C152.931 13.1328 153.423 13.3047 153.931 13.5C154.439 13.6953 154.904 13.9336 155.326 14.2148C155.74 14.5039 156.08 14.8594 156.345 15.2812C156.619 15.6953 156.752 16.1992 156.744 16.793Z" fill="white"/>
<path d="M11.2461 16.3223L4.8125 5.40625H2.33398L10.0508 18.0098L2.08789 31H4.54883L11.2812 19.7148L18.0137 31H20.457L12.5117 18.0098L20.2285 5.40625H17.7324L11.2461 16.3223Z" fill="#F8F3CF"/>
<path d="M176.246 16.3223L169.812 5.40625H167.334L175.051 18.0098L167.088 31H169.549L176.281 19.7148L183.014 31H185.457L177.512 18.0098L185.229 5.40625H182.732L176.246 16.3223Z" fill="#F8F3CF"/>
</svg>
